<svg width="33" height="22" viewBox="0 0 33 22" fill="none" xmlns="http://www.w3.org/2000/svg">
<path d="M11.171 15.666C11.171 14.8913 10.8976 14.2988 10.3507 13.8887C9.80382 13.4694 8.81944 13.0319 7.39757 12.5762C5.97569 12.1113 4.85004 11.6556 4.02061 11.209C1.7602 9.98763 0.629988 8.34245 0.629988 6.27344C0.629988 5.19792 0.930769 4.24089 1.53233 3.40234C2.14301 2.55469 3.01345 1.89388 4.14366 1.41992C5.28298 0.945964 6.55902 0.708984 7.97178 0.708984C9.39366 0.708984 10.6606 0.96875 11.7726 1.48828C12.8845 1.9987 13.7459 2.72331 14.3566 3.66211C14.9763 4.60091 15.2862 5.66732 15.2862 6.86133H11.1847C11.1847 5.94987 10.8976 5.24349 10.3233 4.74219C9.74913 4.23177 8.94249 3.97656 7.90343 3.97656C6.90082 3.97656 6.12152 4.19076 5.56553 4.61914C5.00955 5.03841 4.73155 5.5944 4.73155 6.28711C4.73155 6.93424 5.05512 7.47656 5.70225 7.91406C6.3585 8.35156 7.32009 8.76172 8.58702 9.14453C10.9204 9.84635 12.6202 10.7168 13.6866 11.7559C14.753 12.7949 15.2862 14.0892 15.2862 15.6387C15.2862 17.3613 14.6345 18.7148 13.3312 19.6992C12.0278 20.6745 10.2732 21.1621 8.06749 21.1621C6.53624 21.1621 5.14171 20.8841 3.88389 20.3281C2.62608 19.763 1.66449 18.9928 0.999128 18.0176C0.342878 17.0423 0.0147533 15.9121 0.0147533 14.627H4.12999C4.12999 16.8236 5.44249 17.9219 8.06749 17.9219C9.04275 17.9219 9.80382 17.7259 10.3507 17.334C10.8976 16.9329 11.171 16.377 11.171 15.666ZM23.6309 17.5938H32.3398V20.8887H19.5293V0.982422H23.6309V17.5938Z" fill="#0091FF"/>
</svg>
